<svg width="390" height="299" viewBox="0 0 390 299" fill="none" xmlns="http://www.w3.org/2000/svg">
<path d="M64.8133 297.492L61.5918 297.367C61.815 291.839 62.254 286.223 62.9012 280.666C65.1184 261.689 69.7684 243.066 76.7248 225.323C77.8557 222.441 79.0387 219.67 81.0847 217.372C85.8463 212.029 93.5244 211.186 98.8886 211.017C99.96 210.98 101.039 210.965 102.11 210.957C106.931 210.884 111.909 210.817 116.179 208.947C118.642 207.876 120.807 206.257 123.098 204.543C124.222 203.708 125.33 202.866 126.491 202.097C138.217 194.242 153.997 193.148 166.712 199.296C171.273 201.506 175.35 204.536 179.3 207.477L180.015 208.009C182.47 209.827 184.903 211.453 187.395 211.09C189.196 210.839 189.59 210.048 189.724 209.782C190.133 208.97 190.684 206.368 186.986 199.791C183.534 193.65 178.482 188.359 172.359 184.494C166.816 180.992 160.455 178.841 152.911 177.917C137.502 176.048 128.284 168.555 125.509 155.63C122.838 143.178 129.489 129.573 134.735 120.417C136.714 116.959 139.035 113.316 142.033 108.941L142.733 107.891C144.496 105.202 146.929 101.529 151.981 103.258C155.425 104.448 159.175 104.839 162.769 104.396C163.356 104.322 164.019 104.248 164.74 104.411C166.727 104.899 167.553 106.849 167.992 107.899C169.509 111.52 171.883 114.742 173.787 117.136C175.982 119.907 178.467 123.041 181.294 125.368C183.757 127.401 185.989 128.332 187.842 128.11C188.95 127.992 189.672 127.578 190.044 126.854C190.624 125.73 190.379 123.861 189.434 122.206L187.782 119.346C184.694 114.04 181.495 108.557 180.059 102.319C178.884 97.2279 176.756 94.4641 172.203 92.1141C168.639 90.2741 164.658 89.0769 160.812 87.9093C159.763 87.5915 158.714 87.2738 157.665 86.9412L154.763 85.9953C152.516 85.2564 150.277 84.51 147.985 83.9262L147.063 83.6823C144.883 83.1133 142.621 82.5147 140.731 83.0837C138.767 83.6749 137.197 85.552 135.687 87.3625C135.285 87.8428 134.891 88.3157 134.497 88.7517C132.398 91.1165 130.338 93.533 128.284 95.9421C124.683 100.169 120.971 104.536 117.005 108.593C113.531 112.141 109.662 115.643 104.833 119.634L102.78 117.173C107.512 113.264 111.299 109.828 114.699 106.362C118.582 102.393 122.265 98.0629 125.822 93.8803C127.89 91.449 129.958 89.0178 132.086 86.6309C132.458 86.2096 132.83 85.7663 133.202 85.3155C134.936 83.2389 136.9 80.889 139.801 80.017C142.554 79.1893 145.389 79.9283 147.881 80.586L148.774 80.8225C151.14 81.421 153.461 82.1896 155.775 82.9581L158.632 83.8892C159.659 84.2144 160.693 84.5322 161.734 84.8425C165.722 86.0471 169.844 87.3033 173.668 89.269C179.047 92.0476 181.8 95.6169 183.177 101.603C184.508 107.374 187.447 112.414 190.55 117.742L192.216 120.631C193.712 123.262 193.972 126.203 192.893 128.31C192.283 129.499 190.966 130.985 188.176 131.295C185.379 131.568 182.366 130.43 179.211 127.829C176.116 125.287 173.519 122.006 171.228 119.117C169.204 116.56 166.66 113.109 164.993 109.133C164.822 108.726 164.353 107.618 163.952 107.522C163.81 107.485 163.483 107.529 163.193 107.566C159.041 108.084 154.808 107.633 150.894 106.288C148.439 105.438 147.442 106.539 145.404 109.643L144.667 110.751C141.721 115.052 139.444 118.621 137.51 122.006C132.532 130.704 126.194 143.584 128.641 154.965C131.089 166.404 139.385 173.055 153.283 174.74C161.318 175.715 168.118 178.028 174.07 181.79C180.64 185.943 186.071 191.626 189.776 198.225C193.042 204.033 193.98 208.401 192.581 211.194C192.001 212.361 190.699 213.847 187.819 214.246C183.764 214.815 180.335 212.258 178.058 210.566L177.344 210.034C173.519 207.189 169.561 204.24 165.283 202.171C153.588 196.51 139.057 197.523 128.277 204.743C127.168 205.489 126.089 206.294 125.025 207.093C122.682 208.844 120.271 210.654 117.466 211.881C112.601 214.002 107.281 214.083 102.147 214.157C101.083 214.172 100.027 214.187 98.9779 214.216C91.404 214.453 86.4861 216.13 83.4878 219.493C81.7915 221.392 80.735 223.882 79.7157 226.483C72.856 243.968 68.2729 262.324 66.0856 281.028C65.468 286.504 65.0365 292.046 64.8133 297.492Z" fill="#A98C64"/>
<path d="M3.20377 282.011L0.0566406 281.346L10.1825 234.361C11.8788 226.491 13.6272 218.348 16.5512 210.596C19.4379 202.932 23.3365 195.868 28.2915 187.613C34.4667 177.327 41.1256 167.069 47.5612 157.145C63.2671 132.936 79.5086 107.899 89.9098 80.6749C92.9081 72.8195 95.8097 64.7203 98.6146 56.8797C105.065 38.8559 111.731 20.2187 120.347 2.46832C121.314 0.465672 122.668 0.0296722 123.628 0.0148926C123.643 0.0148926 123.658 0.0148926 123.673 0.0148926C126.292 0.0148926 128.092 3.08167 128.583 4.02757C131.321 9.29652 130.748 15.6222 130.242 21.2015L130.138 22.3765C129.424 30.5053 126.961 41.5458 124.134 49.2312L121.106 48.1301C123.844 40.6811 126.232 29.9733 126.924 22.1031L127.036 20.9133C127.497 15.77 128.025 9.93944 125.726 5.49815C124.967 4.03496 124 3.23686 123.68 3.22208C123.687 3.23686 123.501 3.36249 123.256 3.865C114.715 21.4676 108.078 40.0234 101.658 57.966C98.8453 65.8214 95.9437 73.9428 92.9305 81.8277C82.4103 109.37 66.0794 134.547 50.2768 158.896C43.8561 168.791 37.2196 179.034 31.0667 189.268C26.2009 197.375 22.3841 204.292 19.5793 211.741C16.7372 219.271 15.0111 227.297 13.3445 235.049L3.20377 282.011Z" fill="#A98C64"/>
<path d="M83.4518 124.312L81.2793 121.947C93.2429 111.106 96.6057 100.879 96.6429 100.782C103.279 83.0025 105.526 78.5982 108.934 71.9252C109.834 70.1516 110.831 68.2081 112.014 65.799L113.651 62.4514C118.866 51.7436 124.253 40.6736 133.047 32.5078C134.409 31.2368 135.822 30.0101 137.221 28.7907C138.597 27.5862 139.981 26.389 141.32 25.1402C144.423 22.2581 147.362 19.0731 150.204 15.9915L160.508 4.81812C161.386 3.85744 162.591 2.54944 164.355 2.12822C165.448 1.86219 166.356 1.84741 167.174 2.05432C173.119 3.5988 171.43 12.9987 170.768 15.8437C169.473 21.4157 167.249 26.9507 164.154 32.3157C158.254 42.521 149.698 51.2706 142.139 58.6678C134.885 65.7695 132.214 77.5784 130.071 87.067C129.506 89.5425 128.895 92.4689 128.479 94.9741L125.302 94.4494C125.726 91.8851 126.358 88.907 126.931 86.3649C129.163 76.4699 131.953 64.1511 139.877 56.3918C147.287 49.1423 155.672 40.5775 161.364 30.7269C164.303 25.6353 166.415 20.3885 167.636 15.1343C168.365 11.9863 169.034 5.8527 166.363 5.15066C166.17 5.09893 165.798 5.07676 165.121 5.23934C164.377 5.4167 163.67 6.13351 162.889 6.98334L152.651 18.0903C149.705 21.2901 146.714 24.5268 143.523 27.4901C142.161 28.7612 140.747 29.9879 139.349 31.2072C137.972 32.4118 136.588 33.6089 135.249 34.8578C126.894 42.6171 121.641 53.4137 116.56 63.8555L114.916 67.2179C113.725 69.6417 112.728 71.5926 111.813 73.381C108.339 80.187 106.241 84.2958 99.6934 101.824C99.5743 102.187 96.1073 112.835 83.4518 124.312Z" fill="#A98C64"/>
<path d="M71.712 124.511L68.5352 124.016C70.2464 113.101 70.1199 101.861 70.0008 90.9982L69.9562 86.4018C69.919 83.5197 69.8892 80.5342 70.4026 77.5857C70.6407 76.189 71.0127 74.8071 71.3772 73.4326L71.8534 71.6073C73.3265 65.6881 73.706 59.4215 74.0705 53.3544C74.2789 49.896 74.5021 46.3193 74.9113 42.8018C75.008 41.9889 75.1568 40.7548 75.9231 39.7128C77.6789 37.3702 81.1534 37.6954 83.5119 39.3581C86.793 41.6637 88.7795 45.6912 89.5755 51.6769C90.6171 59.5323 89.9996 68.4149 89.397 77.0093C89.025 82.3004 88.6827 87.1925 88.6902 91.7446H85.4686C85.4612 87.0816 85.8109 82.1378 86.1754 76.9058C86.7707 68.3558 87.3807 59.6432 86.3763 52.0982C85.7067 47.0509 84.1592 43.7329 81.6445 41.9741C80.6178 41.2425 79.0256 40.9395 78.5048 41.6268C78.2667 41.9445 78.1774 42.5431 78.103 43.1786C77.7013 46.6001 77.4855 50.1325 77.2846 53.5466C76.9126 59.754 76.5183 66.1758 74.9857 72.3685L74.4946 74.2529C74.1524 75.5387 73.8027 76.8245 73.5795 78.1252C73.1182 80.7929 73.148 83.4976 73.1777 86.3574L73.2224 90.9613C73.3414 101.965 73.4679 113.338 71.712 124.511Z" fill="#A98C64"/>
<path d="M125.227 144.471C123.434 149.718 119.699 155.556 114.298 157.573C112.334 158.305 113.189 161.46 115.168 160.721C121.753 158.268 126.194 151.772 128.389 145.343C129.074 143.348 125.904 142.491 125.227 144.471Z" fill="#A98C64"/>
<path d="M61.1306 236.423C64.8878 223.572 79.1132 216.951 91.3148 215.214C93.398 214.918 92.5126 211.77 90.4443 212.066C77.0523 213.973 62.0383 221.621 57.9686 235.558C57.3734 237.576 60.5429 238.433 61.1306 236.423Z" fill="#A98C64"/>
<path d="M96.5907 100.827C93.9197 109.037 87.3874 116.242 81.2047 121.977C79.6572 123.41 81.9859 125.716 83.526 124.282C90.1328 118.156 96.9106 110.441 99.7602 101.691C100.415 99.6888 97.238 98.8316 96.5907 100.827Z" fill="#A98C64"/>
<path d="M114.699 106.34C110.889 110.204 106.834 113.803 102.653 117.262C101.031 118.607 103.36 120.905 104.974 119.567C109.156 116.102 113.203 112.503 117.02 108.645C118.508 107.145 116.187 104.832 114.699 106.34Z" fill="#A98C64"/>
<path d="M64.8528 297.426C65.0909 291.883 65.5298 286.356 66.1548 280.843C66.3929 278.759 63.1044 278.774 62.8663 280.843C62.2413 286.356 61.8024 291.883 61.5643 297.426C61.475 299.532 64.7635 299.525 64.8528 297.426Z" fill="#A98C64"/>
<path d="M3.73944 264.083C2.5044 269.803 1.2768 275.515 0.0417523 281.235C-0.397209 283.282 2.7648 284.161 3.2112 282.099C4.44625 276.38 5.67385 270.667 6.90889 264.948C7.34785 262.908 4.18584 262.029 3.73944 264.083Z" fill="#A98C64"/>
<path d="M325.185 297.493C324.969 292.046 324.538 286.511 323.898 281.035C321.71 262.332 317.127 243.975 310.268 226.491C309.248 223.897 308.192 221.407 306.496 219.5C303.505 216.145 298.579 214.468 291.013 214.224C289.964 214.187 288.9 214.172 287.843 214.165C282.702 214.091 277.39 214.017 272.517 211.889C269.712 210.662 267.302 208.851 264.958 207.1C263.887 206.295 262.815 205.489 261.707 204.75C250.926 197.53 236.396 196.518 224.7 202.178C220.429 204.248 216.479 207.189 212.669 210.019L211.925 210.566C209.641 212.258 206.204 214.822 202.164 214.253C199.285 213.854 197.983 212.376 197.402 211.201C196.004 208.401 196.949 204.033 200.207 198.232C203.913 191.633 209.344 185.95 215.913 181.797C221.865 178.028 228.673 175.73 236.701 174.747C250.599 173.063 258.887 166.404 261.342 154.972C263.79 143.584 257.451 130.711 252.474 122.014C250.539 118.629 248.262 115.06 245.316 110.751L244.58 109.65C242.549 106.539 241.552 105.446 239.089 106.295C235.183 107.633 230.95 108.084 226.85 107.581C226.508 107.537 226.181 107.485 226.017 107.537C225.63 107.626 225.161 108.734 224.983 109.148C223.316 113.131 220.779 116.567 218.755 119.124C216.456 122.021 213.845 125.302 210.772 127.837C207.603 130.445 204.597 131.583 201.8 131.303C199.01 130.992 197.7 129.507 197.083 128.317C196.004 126.211 196.264 123.27 197.76 120.639L199.426 117.75C202.529 112.414 205.467 107.374 206.799 101.61C208.176 95.6319 210.936 92.0552 216.308 89.2766C220.132 87.3109 224.246 86.062 228.234 84.8501C229.276 84.5397 230.317 84.2219 231.351 83.8894L234.208 82.9583C236.53 82.1897 238.843 81.4286 241.209 80.8226L242.102 80.5862C244.595 79.9285 247.414 79.1895 250.182 80.0097C253.091 80.8817 255.048 83.2391 256.789 85.3156C257.161 85.7664 257.533 86.2098 257.905 86.631C260.04 89.0327 262.123 91.4788 264.206 93.9174C267.755 98.0927 271.431 102.408 275.3 106.362C278.677 109.806 282.464 113.242 287.226 117.173L285.165 119.634C280.322 115.629 276.453 112.119 273.001 108.594C269.042 104.551 265.337 100.199 261.751 95.9792C259.69 93.5479 257.622 91.1241 255.502 88.7445C255.115 88.3085 254.72 87.8356 254.311 87.3552C252.801 85.5373 251.231 83.6677 249.259 83.0691C247.362 82.5149 245.115 83.1061 242.935 83.6751L242.013 83.919C239.721 84.5028 237.474 85.2417 235.235 85.9881L232.333 86.934C231.284 87.2666 230.235 87.5843 229.179 87.9021C225.34 89.0697 221.359 90.2742 217.803 92.1069C213.25 94.4569 211.114 97.2207 209.946 102.312C208.51 108.549 205.311 114.033 202.224 119.338L200.572 122.198C199.634 123.854 199.382 125.723 199.962 126.847C200.334 127.571 201.056 127.985 202.164 128.103C204.002 128.324 206.249 127.393 208.719 125.361C211.531 123.041 213.919 120.033 216.226 117.129C218.123 114.735 220.496 111.527 222.014 107.899C222.46 106.842 223.286 104.891 225.258 104.411C226.002 104.241 226.664 104.322 227.192 104.389C230.853 104.84 234.588 104.441 238.032 103.258C243.084 101.514 245.517 105.202 247.28 107.892L247.98 108.934C250.986 113.308 253.299 116.959 255.278 120.417C260.516 129.566 267.175 143.178 264.504 155.63C261.729 168.555 252.511 176.048 237.102 177.918C229.558 178.841 223.197 180.984 217.654 184.495C211.539 188.359 206.479 193.651 203.027 199.792C199.344 206.361 199.887 208.962 200.297 209.783C200.423 210.049 200.817 210.839 202.625 211.091C205.11 211.445 207.551 209.834 210.006 208.009L210.742 207.462C214.678 204.536 218.748 201.506 223.301 199.304C236.016 193.148 251.797 194.249 263.522 202.105C264.683 202.88 265.799 203.716 266.915 204.551C269.206 206.265 271.371 207.891 273.834 208.955C278.104 210.825 282.866 210.891 287.903 210.965C288.982 210.98 290.061 210.995 291.132 211.024C296.489 211.194 304.167 212.036 308.928 217.379C310.974 219.678 312.15 222.449 313.288 225.331C320.245 243.074 324.895 261.696 327.112 280.673C327.759 286.223 328.206 291.847 328.421 297.374L325.185 297.493Z" fill="#A98C64"/>
<path d="M386.795 282.011L376.669 235.026C374.995 227.267 373.269 219.249 370.427 211.719C367.622 204.277 363.806 197.353 358.94 189.246C352.794 179.004 346.15 168.769 339.73 158.874C323.935 134.525 307.596 109.347 297.076 81.8054C294.063 73.9279 291.161 65.7991 288.349 57.9437C281.928 40.0012 275.292 21.4527 266.751 3.8501C266.483 3.30326 266.289 3.1998 266.289 3.1998C266.021 3.22197 265.047 4.01268 264.288 5.48326C261.981 9.92454 262.51 15.7551 262.971 20.9058L263.083 22.0882C263.767 29.9658 266.163 40.6736 268.901 48.1152L265.873 49.2163C263.053 41.5382 260.583 30.4904 259.868 22.3616L259.764 21.1866C259.258 15.6073 258.693 9.28902 261.431 4.01268C261.915 3.06678 263.715 0 266.334 0C266.349 0 266.371 0 266.379 0C267.338 0.0147797 268.692 0.45078 269.66 2.46081C278.275 20.2112 284.941 38.8483 291.392 56.8721C294.197 64.7128 297.098 72.8194 300.097 80.6674C310.49 107.892 326.739 132.928 342.445 157.137C348.881 167.062 355.54 177.319 361.715 187.606C366.67 195.86 370.561 202.925 373.455 210.588C376.379 218.347 378.128 226.484 379.824 234.354L389.942 281.338L386.795 282.011Z" fill="#A98C64"/>
<path d="M306.548 124.312C293.893 112.835 290.426 102.187 290.292 101.736C283.767 84.2884 281.676 80.1796 278.202 73.3736C277.294 71.5927 276.297 69.627 275.099 67.2031L273.44 63.8186C268.359 53.3841 263.106 42.595 254.758 34.8356C253.419 33.5941 252.035 32.397 250.659 31.1924C249.253 29.9731 247.846 28.7464 246.485 27.4827C243.293 24.5194 240.31 21.2827 237.423 18.1568L227.118 6.98336C226.337 6.14092 225.63 5.4241 224.886 5.23936C224.209 5.07678 223.845 5.09895 223.651 5.15068C221.33 5.75664 221.36 10.7522 222.372 15.1343C223.592 20.3885 225.705 25.6427 228.644 30.7269C234.335 40.5849 242.72 49.1423 250.13 56.3918C258.054 64.1585 260.844 76.4773 263.076 86.3723C263.649 88.907 264.274 91.8851 264.705 94.4568L261.529 94.9815C261.112 92.4763 260.494 89.5573 259.936 87.0744C257.794 77.5858 255.123 65.7769 247.869 58.6752C240.31 51.278 231.754 42.5285 225.854 32.3231C222.759 26.9655 220.534 21.4231 219.24 15.8512C218.585 13.0061 216.903 3.59881 222.84 2.06173C223.637 1.84742 224.567 1.86959 225.653 2.13563C227.416 2.56424 228.621 3.87224 229.499 4.82553L239.737 15.9324C242.646 19.0879 245.585 22.2729 248.687 25.155C250.026 26.3964 251.41 27.5936 252.787 28.7981C254.193 30.0175 255.599 31.2442 256.96 32.5078C265.747 40.6736 271.141 51.7288 276.349 62.4293L278.001 65.8064C279.191 68.2155 280.181 70.1664 281.081 71.94C284.481 78.6056 286.728 83.0173 293.342 100.709C293.402 100.886 296.765 111.113 308.728 121.954L306.548 124.312Z" fill="#A98C64"/>
<path d="M318.295 124.511C316.539 113.338 316.666 101.965 316.792 90.9689L316.837 86.3651C316.874 83.4978 316.896 80.7931 316.435 78.1328C316.212 76.8322 315.862 75.539 315.52 74.2605L315.029 72.3761C313.489 66.1834 313.102 59.7617 312.73 53.5542C312.522 50.1401 312.313 46.6078 311.912 43.1863C311.837 42.5508 311.748 41.9522 311.502 41.6344C310.996 40.9398 309.389 41.2575 308.363 41.9817C305.848 43.7479 304.3 47.0659 303.631 52.1132C302.626 59.6508 303.237 68.3708 303.824 76.8026C304.196 82.1529 304.546 87.0967 304.546 91.7596H301.324C301.324 87.2075 300.982 82.3154 300.618 77.1426C300.008 68.4299 299.39 59.5548 300.432 51.692C301.228 45.7062 303.214 41.6788 306.495 39.3657C308.846 37.7104 312.336 37.3853 314.084 39.7204C314.858 40.755 314.999 41.9891 315.096 42.8094C315.513 46.327 315.728 49.9036 315.937 53.3621C316.301 59.4291 316.681 65.6957 318.154 71.615L318.63 73.4403C318.995 74.8148 319.367 76.1967 319.605 77.5933C320.118 80.5419 320.088 83.5274 320.051 86.4094L320.006 91.0059C319.887 101.876 319.761 113.109 321.472 124.024L318.295 124.511Z" fill="#A98C64"/>
<path d="M261.61 145.336C263.804 151.765 268.254 158.261 274.831 160.714C276.81 161.453 277.665 158.298 275.701 157.566C270.3 155.556 266.565 149.711 264.772 144.464C264.102 142.491 260.925 143.341 261.61 145.336Z" fill="#A98C64"/>
<path d="M332.037 235.551C327.967 221.614 312.946 213.965 299.561 212.059C297.493 211.763 296.6 214.911 298.69 215.207C310.892 216.943 325.117 223.565 328.875 236.416C329.455 238.433 332.624 237.576 332.037 235.551Z" fill="#A98C64"/>
<path d="M290.239 101.691C293.089 110.441 299.866 118.156 306.473 124.282C308.021 125.716 310.342 123.41 308.794 121.977C302.604 116.235 296.079 109.037 293.408 100.827C292.761 98.8316 289.592 99.6888 290.239 101.691Z" fill="#A98C64"/>
<path d="M272.978 108.645C276.787 112.51 280.842 116.109 285.023 119.568C286.638 120.905 288.974 118.607 287.345 117.262C283.163 113.796 279.116 110.197 275.299 106.34C273.819 104.84 271.49 107.145 272.978 108.645Z" fill="#A98C64"/>
<path d="M328.436 297.426C328.198 291.884 327.759 286.356 327.134 280.843C326.896 278.781 323.615 278.759 323.846 280.843C324.471 286.356 324.91 291.884 325.148 297.426C325.244 299.525 328.525 299.532 328.436 297.426Z" fill="#A98C64"/>
<path d="M383.09 264.955C384.325 270.675 385.553 276.387 386.788 282.107C387.227 284.161 390.397 283.289 389.958 281.242C388.723 275.522 387.495 269.81 386.26 264.09C385.821 262.036 382.651 262.901 383.09 264.955Z" fill="#A98C64"/>
</svg>
